<?xml version="1.0" encoding="utf-8"?>
<!-- Generator: Adobe Illustrator 21.1.0, SVG Export Plug-In . SVG Version: 6.00 Build 0)  -->
<svg version="1.1" id="Layer_1" xmlns="http://www.w3.org/2000/svg" xmlns:xlink="http://www.w3.org/1999/xlink" x="0px" y="0px"
	 viewBox="0 0 70 70" style="enable-background:new 0 0 70 70;" xml:space="preserve">
<style type="text/css">
	.st0{fill:#FFFFFF;stroke:#000333;stroke-width:2;stroke-miterlimit:10;}
</style>
<title>calc-icons_handle-hoppe</title>
<path class="st0" d="M60.8,18.3L60.8,18.3c-2.1-2.1-5.5-2.1-7.6,0L43.6,28c-2.1,2.1-6.5,1-2.6,5c0.1,0.1,2.5,2.5,2.6,2.6l0,0
	c2.1,2.1,5.5,2.1,7.6,0l9.7-9.7C62.9,23.8,62.9,20.4,60.8,18.3z"/>
<path class="st0" d="M41.3,25.7c-2.1,2.1-2.1,5.5,0,7.6l0,0c2.1,2.1,5.5,2.1,7.6,0l12.8-12.8"/>
<path class="st0" d="M58.7,22.2c-7.4,1.1-17.5,7.5-25.5,14.2S15.5,56.5,15.5,56.5s-0.6,0.4-1.3-0.3s-3.7-3.6-2.9-4.9
	c0.8-1.3,7-13,15-21s20.8-16.7,28.2-16c2.3,0.2,4.1,1.8,5.1,3.8S61.5,21.5,58.7,22.2z"/>
</svg>
