<?xml version="1.0" encoding="utf-8"?>
<!-- Generator: Adobe Illustrator 21.1.0, SVG Export Plug-In . SVG Version: 6.00 Build 0)  -->
<svg version="1.1" id="Layer_1" xmlns="http://www.w3.org/2000/svg" xmlns:xlink="http://www.w3.org/1999/xlink" x="0px" y="0px"
	 viewBox="0 0 70 70" style="enable-background:new 0 0 70 70;" xml:space="preserve">
<style type="text/css">
	.st0{fill:none;stroke:#000333;stroke-width:2;stroke-miterlimit:10;}
	.st1{fill:none;stroke:#1056C6;stroke-width:2;stroke-miterlimit:10;}
	.st2{fill:none;stroke:#FF8300;stroke-width:2;stroke-miterlimit:10;}
	.st3{fill:#000333;}
	.st4{fill:#FF8300;}
</style>
<g>
	<g>
		<path class="st0" d="M15.5,31.2v29.6h38.3V31.2H15.5z M45,31.1v-9.9c0-5.6-4.9-10.1-10.9-10.1c-6,0-10.9,4.5-10.9,10.1v9.9
			 M17.2,53.8"/>
		<path class="st0" d="M34.6,38.1c-1.9,0-3.5,1.6-3.5,3.5v5.2c0,1.9,1.6,3.5,3.5,3.5c1.9,0,3.5-1.6,3.5-3.5v-5.2
			C38.1,39.7,36.5,38.1,34.6,38.1L34.6,38.1z"/>
	</g>
	<line class="st0" x1="15.5" y1="54.6" x2="53.5" y2="54.6"/>
</g>
</svg>
