<?xml version="1.0" encoding="utf-8"?>
<!-- Generator: Adobe Illustrator 21.1.0, SVG Export Plug-In . SVG Version: 6.00 Build 0)  -->
<svg version="1.1" id="Layer_1" xmlns="http://www.w3.org/2000/svg" xmlns:xlink="http://www.w3.org/1999/xlink" x="0px" y="0px"
	 viewBox="0 0 70 70" style="enable-background:new 0 0 70 70;" xml:space="preserve">
<style type="text/css">
	.st0{fill:none;stroke:#000333;stroke-width:2;stroke-miterlimit:10;}
	.st1{fill:none;stroke:#1056C6;stroke-width:2;stroke-miterlimit:10;}
	.st2{fill:none;stroke:#FF8300;stroke-width:2;stroke-miterlimit:10;}
	.st3{fill:#000333;}
	.st4{fill:#FF8300;}
</style>
<g>
	<line class="st0" x1="65" y1="20.5" x2="65" y2="50.5"/>
	<polyline class="st0" points="48,35.5 37,24.5 48,12.5 59,23.5 59,47.5 54,53.5 58,58.5 36,58.5 36,35.5 41,41.5 59,23.5 	"/>
	<path class="st1" d="M29.5,27.5c-4.7,0-8.5,3.8-8.5,8.5s3.8,8.5,8.5,8.5"/>
	<g>
		<line class="st1" x1="7" y1="35.5" x2="22" y2="35.5"/>
		<polyline class="st1" points="14,39.5 16,35.5 14,31.5 		"/>
		<polyline class="st1" points="9,39.5 11.7,35.5 9,31.5 		"/>
	</g>
	<g>
		<line class="st1" x1="13.2" y1="20.1" x2="23.8" y2="30.8"/>
		<polyline class="st1" points="15.3,27.9 19.6,26.5 21,22.3 		"/>
		<polyline class="st1" points="11.8,24.4 16.5,23.5 17.4,18.7 		"/>
	</g>
	<g>
		<line class="st1" x1="13.2" y1="51.8" x2="23.8" y2="41.1"/>
		<polyline class="st1" points="21,49.6 19.6,45.4 15.3,44 		"/>
		<polyline class="st1" points="17.4,53.2 16.5,48.4 11.8,47.5 		"/>
	</g>
	<g>
		<line class="st1" x1="29" y1="58.5" x2="29" y2="43.5"/>
		<line class="st1" x1="29" y1="49.5" x2="25" y2="51.5"/>
		<line class="st1" x1="29" y1="53.8" x2="25" y2="56.5"/>
	</g>
	<g>
		<line class="st1" x1="29" y1="12.5" x2="29" y2="28.5"/>
		<line class="st1" x1="25" y1="19.5" x2="29" y2="21.5"/>
		<line class="st1" x1="25" y1="14.5" x2="29" y2="17.1"/>
	</g>
</g>
</svg>
