<?xml version="1.0" encoding="utf-8"?>
<!-- Generator: Adobe Illustrator 21.1.0, SVG Export Plug-In . SVG Version: 6.00 Build 0)  -->
<svg version="1.1" id="Layer_1" xmlns="http://www.w3.org/2000/svg" xmlns:xlink="http://www.w3.org/1999/xlink" x="0px" y="0px"
	 viewBox="0 0 70 70" style="enable-background:new 0 0 70 70;" xml:space="preserve">
<style type="text/css">
	.st0{fill:none;stroke:#000333;stroke-width:2;stroke-miterlimit:10;}
	.st1{fill:none;stroke:#1056C6;stroke-width:2;stroke-miterlimit:10;}
	.st2{fill:none;stroke:#FF8300;stroke-width:2;stroke-miterlimit:10;}
	.st3{fill:#000333;}
	.st4{fill:#FF8300;}
</style>
<g>
	<g>
		<g>
			<g>
				<g>
					<path class="st1" d="M63,49c-2.1,1.8-3.7,3.2-8.2,0.7c-5.9-3.3-8.7-1-10.9,1"/>
				</g>
			</g>
		</g>
		<g>
			<g>
				<g>
					<path class="st1" d="M63,44c-2.1,1.8-3.7,3.2-8.2,0.7c-5.9-3.3-8.7-1-10.9,1"/>
				</g>
			</g>
		</g>
		<g>
			<g>
				<g>
					<path class="st1" d="M63,39c-2.1,1.8-3.7,3.2-8.2,0.7c-5.9-3.3-8.7-1-10.9,1"/>
				</g>
			</g>
		</g>
	</g>
	<rect x="18.2" y="11.5" class="st0" width="36.8" height="49"/>
	<line class="st0" x1="36.6" y1="11.5" x2="36.6" y2="60.5"/>
	<g>
		<g>
			<g>
				<g>
					<path class="st2" d="M27,32c-2.1,1.8-3.7,3.2-8.2,0.7c-5.9-3.3-8.7-1-10.9,1"/>
				</g>
			</g>
		</g>
		<g>
			<g>
				<g>
					<path class="st2" d="M27,27c-2.1,1.8-3.7,3.2-8.2,0.7c-5.9-3.3-8.7-1-10.9,1"/>
				</g>
			</g>
		</g>
		<g>
			<g>
				<g>
					<path class="st2" d="M27,22c-2.1,1.8-3.7,3.2-8.2,0.7c-5.9-3.3-8.7-1-10.9,1"/>
				</g>
			</g>
		</g>
	</g>
</g>
</svg>
