<?xml version="1.0" encoding="utf-8"?>
<!-- Generator: Adobe Illustrator 20.1.0, SVG Export Plug-In . SVG Version: 6.00 Build 0)  -->
<svg version="1.1" id="Layer_1" xmlns="http://www.w3.org/2000/svg" xmlns:xlink="http://www.w3.org/1999/xlink" x="0px" y="0px"
	 viewBox="0 0 408 158" style="enable-background:new 0 0 408 158;" xml:space="preserve">
<style type="text/css">
	.st0{fill:#FF7D00;}
	.st1{fill:#2D2D2E;}
</style>
<image style="display:none;overflow:visible;opacity:0.4;" width="324" height="81" xlink:href="logo01.html"  transform="matrix(1 0 0 1 33.935 40.8383)">
</image>
<polygon class="st0" points="118,117.6 118,113 115.7,113 115.7,117.6 114.6,117.6 114.6,107.7 115.7,107.7 115.7,112.1 118,112.1 
	118,107.7 119.1,107.7 119.1,117.6 "/>
<path class="st0" d="M123.7,109.8l-0.4,2.3l-0.5,2.3h1.8l-0.5-2.3L123.7,109.8L123.7,109.8z M125.3,117.6l-0.5-2.2h-2.2l-0.4,2.2
	h-1.1l2.1-9.8h1l2.1,9.8H125.3z"/>
<path class="st0" d="M132.1,116.6v-7.9h-2.1l-0.2,5c0,0.7-0.1,1.3-0.2,1.8c-0.1,0.5-0.2,0.8-0.4,1.1H132.1z M128.6,119.5h-1v-2.8
	l0.4-0.1c0.1-0.1,0.2-0.2,0.3-0.3c0.1-0.1,0.2-0.3,0.2-0.5c0.1-0.2,0.1-0.5,0.2-0.9c0-0.3,0.1-0.8,0.1-1.2l0.2-5.9h4.2v8.9h0.5v2.8
	h-1v-1.9h-4.1V119.5z"/>
<polygon class="st0" points="135.7,117.6 135.7,107.7 139.9,107.7 139.9,108.8 136.8,108.8 136.8,112.1 139.5,112.1 139.5,113.1 
	136.8,113.1 136.8,116.5 139.9,116.5 139.9,117.6 "/>
<path class="st0" d="M145.4,117.6v-4.5h-0.5c-0.2,0-0.3,0-0.5,0c-0.2,0-0.3,0.1-0.5,0.2c-0.2,0.1-0.3,0.3-0.4,0.5
	c-0.1,0.2-0.2,0.5-0.3,0.8l-0.6,3h-1.1l0.7-3.2c0.1-0.5,0.3-0.9,0.5-1.2c0.2-0.3,0.5-0.6,0.9-0.7c-0.3-0.1-0.5-0.3-0.7-0.6
	c-0.2-0.3-0.4-0.7-0.5-1.2l-0.7-2.9h1l0.7,2.8c0.1,0.3,0.2,0.6,0.3,0.8c0.1,0.2,0.3,0.3,0.4,0.4c0.2,0.1,0.3,0.2,0.5,0.2
	c0.2,0,0.3,0,0.4,0h0.4v-4.3h1.1v4.3h0.4c0.1,0,0.3,0,0.4,0c0.2,0,0.3-0.1,0.5-0.2c0.1-0.1,0.3-0.2,0.4-0.4c0.1-0.2,0.2-0.4,0.3-0.8
	l0.7-2.8h1l-0.7,2.9c-0.1,0.5-0.3,0.9-0.5,1.2c-0.2,0.3-0.5,0.5-0.7,0.6c0.4,0.1,0.6,0.4,0.9,0.7c0.2,0.3,0.3,0.7,0.5,1.2l0.7,3.2
	h-1.1l-0.6-3c-0.1-0.3-0.2-0.6-0.3-0.8c-0.1-0.2-0.2-0.4-0.4-0.5c-0.2-0.1-0.3-0.2-0.5-0.2c-0.2,0-0.3,0-0.5,0h-0.5v4.5H145.4z"/>
<polygon class="st0" points="155.9,117.6 155.9,113 153.6,113 153.6,117.6 152.5,117.6 152.5,107.7 153.6,107.7 153.6,112.1 
	155.9,112.1 155.9,107.7 157,107.7 157,117.6 "/>
<path class="st0" d="M164.8,107.7h1.1v9.8h-1.1V107.7z M160.7,116.5h0.8c0.3,0,0.6,0,0.8-0.1c0.2-0.1,0.3-0.2,0.5-0.4
	c0.1-0.2,0.2-0.4,0.2-0.6c0-0.2,0-0.5,0-0.7c0-0.3,0-0.5,0-0.7c0-0.2-0.1-0.4-0.2-0.6c-0.1-0.2-0.3-0.3-0.5-0.4
	c-0.2-0.1-0.5-0.2-0.8-0.2h-0.8V116.5z M159.6,117.6v-9.8h1.1v4h0.8c0.5,0,1,0.1,1.3,0.2c0.3,0.1,0.6,0.3,0.8,0.6
	c0.2,0.3,0.3,0.6,0.4,0.9c0.1,0.3,0.1,0.7,0.1,1.1c0,0.5,0,0.9-0.1,1.2c-0.1,0.4-0.2,0.7-0.4,1c-0.2,0.3-0.4,0.5-0.8,0.6
	c-0.3,0.1-0.7,0.2-1.2,0.2H159.6z"/>
<polygon class="st0" points="168.6,117.6 168.6,107.7 172.8,107.7 172.8,108.8 169.7,108.8 169.7,112.1 172.4,112.1 172.4,113.1 
	169.7,113.1 169.7,116.5 172.8,116.5 172.8,117.6 "/>
<path class="st0" d="M179.7,112.6h0.8c0.3,0,0.6-0.1,0.8-0.2c0.2-0.1,0.4-0.2,0.5-0.4c0.1-0.2,0.2-0.4,0.2-0.6c0-0.2,0-0.5,0-0.7
	c0-0.3,0-0.5-0.1-0.8c0-0.2-0.1-0.4-0.2-0.6c-0.1-0.2-0.3-0.3-0.5-0.4c-0.2-0.1-0.5-0.1-0.8-0.1h-0.8V112.6z M180.6,107.7
	c0.5,0,0.9,0.1,1.2,0.2c0.3,0.1,0.6,0.3,0.8,0.6c0.2,0.2,0.3,0.6,0.4,0.9c0.1,0.4,0.1,0.8,0.1,1.2c0,0.4,0,0.8-0.1,1.2
	c-0.1,0.4-0.2,0.7-0.4,0.9c-0.2,0.3-0.5,0.5-0.8,0.6c-0.3,0.2-0.8,0.2-1.3,0.2h-0.8v4h-1.1v-9.8H180.6z"/>
<polygon class="st0" points="185.3,117.6 185.3,107.7 189.5,107.7 189.5,108.8 186.4,108.8 186.4,112.1 189.1,112.1 189.1,113.1 
	186.4,113.1 186.4,116.5 189.5,116.5 189.5,117.6 "/>
<polygon class="st0" points="198.7,107.7 198.7,117.6 191.5,117.6 191.5,107.7 192.6,107.7 192.6,116.5 194.6,116.5 194.6,107.7 
	195.7,107.7 195.7,116.5 197.6,116.5 197.6,107.7 "/>
<polygon class="st0" points="201.3,117.6 201.3,107.7 205.5,107.7 205.5,108.8 202.4,108.8 202.4,112.1 205.1,112.1 205.1,113.1 
	202.4,113.1 202.4,116.5 205.5,116.5 205.5,117.6 "/>
<polygon class="st0" points="210.9,117.6 210.9,113 208.6,113 208.6,117.6 207.5,117.6 207.5,107.7 208.6,107.7 208.6,112.1 
	210.9,112.1 210.9,107.7 212,107.7 212,117.6 "/>
<polygon class="st0" points="218.1,110.7 215.6,117.6 214.6,117.6 214.6,107.7 215.7,107.7 215.7,114.7 215.7,114.7 218.2,107.7 
	219.2,107.7 219.2,117.6 218.2,117.6 218.2,110.7 "/>
<path class="st0" d="M222.9,110.6c0,1,0.5,1.6,1.4,1.6h1v-3.4h-0.9c-0.3,0-0.5,0-0.7,0.1c-0.2,0.1-0.3,0.2-0.4,0.4
	c-0.1,0.2-0.2,0.4-0.2,0.6C222.9,110.1,222.9,110.4,222.9,110.6 M221.5,117.6l0.6-3.1c0.1-0.4,0.2-0.7,0.3-1
	c0.1-0.3,0.3-0.5,0.6-0.7c-0.2-0.1-0.4-0.2-0.6-0.3c-0.2-0.1-0.3-0.3-0.4-0.5c-0.1-0.2-0.2-0.4-0.2-0.6c0-0.2-0.1-0.5-0.1-0.7
	c0-0.9,0.2-1.7,0.6-2.2c0.4-0.5,1-0.7,1.8-0.7h2.2v9.8h-1.1v-4.4h-0.6c-0.1,0-0.3,0-0.4,0c-0.1,0-0.3,0.1-0.4,0.2
	c-0.1,0.1-0.3,0.3-0.4,0.5c-0.1,0.2-0.2,0.5-0.3,0.8l-0.5,2.9H221.5z"/>
<path class="st0" d="M236.5,116.6v-7.9h-2.1l-0.2,5c0,0.7-0.1,1.3-0.2,1.8c-0.1,0.5-0.2,0.8-0.4,1.1H236.5z M233,119.5h-1v-2.8
	l0.4-0.1c0.1-0.1,0.2-0.2,0.3-0.3c0.1-0.1,0.2-0.3,0.2-0.5c0.1-0.2,0.1-0.5,0.2-0.9c0-0.3,0.1-0.8,0.1-1.2l0.2-5.9h4.2v8.9h0.5v2.8
	h-1v-1.9H233V119.5z"/>
<path class="st0" d="M241.7,112.6c0,0.9,0,1.7-0.1,2.2c-0.1,0.6-0.2,1.1-0.3,1.5c-0.1,0.4-0.3,0.7-0.6,0.9c-0.2,0.2-0.5,0.4-0.9,0.6
	l-0.5-0.8c0.2-0.2,0.4-0.3,0.6-0.5c0.2-0.2,0.3-0.4,0.4-0.6c0.1-0.2,0.2-0.6,0.3-1c0.1-0.4,0.1-0.9,0.1-1.5v-5.8h4.1v9.8h-1.1v-8.8
	h-2V112.6z"/>
<path class="st0" d="M248.5,110.6c0,1,0.5,1.6,1.4,1.6h1v-3.4h-0.9c-0.3,0-0.5,0-0.7,0.1c-0.2,0.1-0.3,0.2-0.4,0.4
	c-0.1,0.2-0.2,0.4-0.2,0.6C248.5,110.1,248.5,110.4,248.5,110.6 M247.1,117.6l0.6-3.1c0.1-0.4,0.2-0.7,0.3-1
	c0.1-0.3,0.3-0.5,0.6-0.7c-0.2-0.1-0.4-0.2-0.6-0.3c-0.2-0.1-0.3-0.3-0.4-0.5c-0.1-0.2-0.2-0.4-0.2-0.6c0-0.2-0.1-0.5-0.1-0.7
	c0-0.9,0.2-1.7,0.6-2.2c0.4-0.5,1-0.7,1.8-0.7h2.2v9.8h-1.1v-4.4h-0.6c-0.1,0-0.3,0-0.4,0c-0.1,0-0.3,0.1-0.4,0.2
	c-0.1,0.1-0.3,0.3-0.4,0.5c-0.1,0.2-0.2,0.5-0.3,0.8l-0.5,2.9H247.1z"/>
<polygon class="st0" points="261.6,117.6 261.6,113 259.4,113 259.4,117.6 258.2,117.6 258.2,107.7 259.4,107.7 259.4,112.1 
	261.6,112.1 261.6,107.7 262.8,107.7 262.8,117.6 "/>
<path class="st0" d="M268.7,110.2c0-0.2,0-0.3,0-0.5c0-0.2-0.1-0.3-0.2-0.5c-0.1-0.1-0.2-0.3-0.3-0.4c-0.2-0.1-0.4-0.1-0.6-0.1
	c-0.3,0-0.5,0.1-0.6,0.2c-0.2,0.1-0.3,0.3-0.3,0.5c-0.1,0.2-0.1,0.4-0.1,0.6c0,0.2,0,0.4,0,0.5v4.8c0,0.1,0,0.3,0,0.5
	c0,0.2,0.1,0.3,0.2,0.5c0.1,0.1,0.2,0.3,0.3,0.3c0.1,0.1,0.3,0.1,0.6,0.1c0.2,0,0.4,0,0.6-0.1c0.2-0.1,0.3-0.2,0.4-0.4
	c0.1-0.1,0.1-0.3,0.2-0.5c0-0.2,0.1-0.4,0.1-0.6V110.2z M269.8,114.9c0,0.9-0.2,1.6-0.5,2c-0.3,0.5-0.9,0.7-1.8,0.7
	c-0.8,0-1.4-0.2-1.7-0.7c-0.3-0.4-0.5-1-0.5-1.8v-4.9c0-0.3,0-0.7,0.1-1c0.1-0.3,0.2-0.6,0.3-0.9c0.2-0.3,0.4-0.5,0.7-0.6
	c0.3-0.2,0.7-0.2,1.1-0.2c0.5,0,0.9,0.1,1.2,0.2c0.3,0.1,0.5,0.3,0.7,0.6c0.2,0.2,0.3,0.5,0.3,0.9c0.1,0.3,0.1,0.7,0.1,1.1V114.9z"
	/>
<path class="st0" d="M275.7,114.6c0-0.5-0.1-1-0.3-1.2c-0.2-0.3-0.6-0.4-1.2-0.4h-0.8v3.7h0.9c0.3,0,0.6-0.1,0.7-0.2
	c0.2-0.1,0.3-0.3,0.4-0.4c0.1-0.2,0.2-0.4,0.2-0.6C275.7,115.1,275.7,114.8,275.7,114.6 M275.6,110.3c0-0.5-0.1-0.9-0.3-1.2
	c-0.2-0.3-0.6-0.4-1.1-0.4h-0.8v3.1h0.7c0.5,0,0.9-0.1,1.1-0.4C275.5,111.2,275.6,110.8,275.6,110.3 M275.6,112.4
	c0.4,0.1,0.7,0.4,0.9,0.8c0.2,0.4,0.2,0.9,0.2,1.5c0,1-0.2,1.8-0.6,2.2c-0.4,0.5-1.1,0.7-2,0.7h-1.9v-9.8h2.1c0.8,0,1.4,0.2,1.8,0.7
	c0.3,0.5,0.5,1.1,0.5,1.9c0,0.5-0.1,0.9-0.2,1.2C276.3,111.9,276,112.1,275.6,112.4L275.6,112.4z"/>
<path class="st0" d="M282.5,110.2c0-0.2,0-0.3,0-0.5c0-0.2-0.1-0.3-0.1-0.5c-0.1-0.1-0.2-0.3-0.3-0.4c-0.2-0.1-0.4-0.1-0.6-0.1
	c-0.3,0-0.5,0.1-0.7,0.2c-0.2,0.1-0.3,0.3-0.3,0.5c-0.1,0.2-0.1,0.4-0.1,0.6c0,0.2,0,0.4,0,0.5v4.8c0,0.1,0,0.3,0,0.5
	c0,0.2,0.1,0.3,0.2,0.5c0.1,0.1,0.2,0.3,0.3,0.3c0.1,0.1,0.3,0.1,0.6,0.1c0.2,0,0.4,0,0.6-0.1c0.2-0.1,0.3-0.2,0.4-0.4
	c0.1-0.1,0.1-0.3,0.2-0.5c0-0.2,0-0.4,0-0.6V110.2z M283.6,114.9c0,0.9-0.2,1.6-0.5,2c-0.3,0.5-0.9,0.7-1.8,0.7
	c-0.8,0-1.4-0.2-1.7-0.7c-0.3-0.4-0.5-1-0.5-1.8v-4.9c0-0.3,0-0.7,0.1-1c0.1-0.3,0.2-0.6,0.3-0.9c0.2-0.3,0.4-0.5,0.7-0.6
	c0.3-0.2,0.7-0.2,1.1-0.2c0.5,0,0.9,0.1,1.2,0.2c0.3,0.1,0.5,0.3,0.7,0.6c0.2,0.2,0.3,0.5,0.3,0.9c0.1,0.3,0.1,0.7,0.1,1.1V114.9z"
	/>
<path class="st0" d="M287.4,105.7c0,0.1,0,0.2,0.1,0.3c0,0.1,0.1,0.2,0.2,0.3c0.1,0.1,0.2,0.2,0.3,0.2c0.1,0.1,0.2,0.1,0.4,0.1
	c0.2,0,0.3,0,0.4-0.1c0.1-0.1,0.2-0.1,0.3-0.2c0.1-0.1,0.2-0.2,0.2-0.3c0-0.1,0.1-0.2,0.1-0.3h0.9c0,0.2-0.1,0.4-0.1,0.6
	c-0.1,0.2-0.2,0.4-0.3,0.6c-0.2,0.2-0.3,0.3-0.6,0.4c-0.2,0.1-0.5,0.2-0.8,0.2c-0.3,0-0.6-0.1-0.9-0.2c-0.2-0.1-0.4-0.3-0.6-0.4
	c-0.1-0.2-0.3-0.4-0.3-0.6c-0.1-0.2-0.1-0.4-0.1-0.6H287.4z M289.6,110.7l-2.5,6.9h-1v-9.8h1.1v7l0.1,0l2.5-7h1.1v9.8h-1.1
	L289.6,110.7L289.6,110.7z"/>
<path class="st0" d="M300.5,117.6v-4.5H300c-0.2,0-0.3,0-0.5,0c-0.2,0-0.3,0.1-0.5,0.2c-0.2,0.1-0.3,0.3-0.4,0.5
	c-0.1,0.2-0.2,0.5-0.3,0.8l-0.6,3h-1.1l0.7-3.2c0.1-0.5,0.3-0.9,0.4-1.2c0.2-0.3,0.5-0.6,0.9-0.7c-0.3-0.1-0.5-0.3-0.7-0.6
	c-0.2-0.3-0.4-0.7-0.5-1.2l-0.6-2.9h1l0.7,2.8c0.1,0.3,0.2,0.6,0.3,0.8c0.1,0.2,0.3,0.3,0.4,0.4c0.1,0.1,0.3,0.2,0.5,0.2
	c0.2,0,0.3,0,0.4,0h0.4v-4.3h1.1v4.3h0.4c0.1,0,0.3,0,0.4,0c0.2,0,0.3-0.1,0.5-0.2c0.1-0.1,0.3-0.2,0.4-0.4c0.1-0.2,0.2-0.4,0.3-0.8
	l0.7-2.8h1l-0.6,2.9c-0.1,0.5-0.3,0.9-0.5,1.2c-0.2,0.3-0.5,0.5-0.7,0.6c0.4,0.1,0.7,0.4,0.8,0.7c0.2,0.3,0.3,0.7,0.5,1.2l0.7,3.2
	h-1.1l-0.6-3c-0.1-0.3-0.2-0.6-0.3-0.8c-0.1-0.2-0.2-0.4-0.4-0.5c-0.2-0.1-0.3-0.2-0.5-0.2c-0.2,0-0.3,0-0.5,0h-0.5v4.5H300.5z"/>
<polygon class="st0" points="311,110.7 308.6,117.6 307.5,117.6 307.5,107.7 308.6,107.7 308.6,114.7 308.6,114.7 311.1,107.7 
	312.2,107.7 312.2,117.6 311.1,117.6 311.1,110.7 "/>
<path class="st0" d="M316.3,107.6c0.3,0,0.7,0,0.9,0.1c0.3,0.1,0.5,0.2,0.7,0.4c0.2,0.2,0.3,0.5,0.5,0.8c0.1,0.3,0.2,0.7,0.2,1.2
	c0,0.2,0,0.4,0,0.6c0,0.2-0.1,0.4-0.1,0.7c-0.1,0.2-0.2,0.4-0.3,0.6c-0.1,0.2-0.3,0.3-0.4,0.4v0c0.2,0.1,0.4,0.3,0.5,0.4
	c0.1,0.2,0.2,0.4,0.3,0.6c0.1,0.2,0.1,0.4,0.1,0.6c0,0.2,0,0.4,0,0.6c0,0.9-0.2,1.7-0.5,2.2c-0.4,0.5-0.9,0.7-1.7,0.7
	c-0.3,0-0.6,0-0.9-0.1c-0.3-0.1-0.5-0.2-0.7-0.4c-0.2-0.2-0.4-0.4-0.5-0.7c-0.1-0.3-0.1-0.6-0.1-1l1.1-0.2c0,0.5,0.1,0.9,0.3,1.1
	c0.2,0.2,0.5,0.3,0.8,0.3c0.2,0,0.3,0,0.4-0.1c0.1-0.1,0.3-0.2,0.4-0.3c0.1-0.1,0.2-0.3,0.2-0.6c0.1-0.2,0.1-0.6,0.1-0.9
	c0-0.2,0-0.5,0-0.7c0-0.2-0.1-0.4-0.2-0.6c-0.1-0.2-0.2-0.3-0.3-0.4c-0.1-0.1-0.3-0.1-0.5-0.1h-0.6v-1h0.7c0.2,0,0.4,0,0.5-0.1
	c0.1-0.1,0.2-0.2,0.3-0.4c0.1-0.2,0.1-0.3,0.2-0.6c0-0.2,0.1-0.4,0.1-0.7c0-0.3,0-0.6-0.1-0.8c-0.1-0.2-0.1-0.4-0.3-0.5
	c-0.1-0.1-0.2-0.2-0.4-0.3c-0.1,0-0.3-0.1-0.5-0.1c-0.4,0-0.7,0.1-0.8,0.4c-0.2,0.3-0.3,0.6-0.3,1l-1.1-0.2c0-0.7,0.2-1.3,0.6-1.6
	C315.2,107.8,315.7,107.6,316.3,107.6"/>
<polygon class="st0" points="324.5,117.6 324.5,113 322.2,113 322.2,117.6 321.1,117.6 321.1,107.7 322.2,107.7 322.2,112.1 
	324.5,112.1 324.5,107.7 325.6,107.7 325.6,117.6 "/>
<polygon class="st0" points="331.7,110.7 329.2,117.6 328.2,117.6 328.2,107.7 329.3,107.7 329.3,114.7 329.3,114.7 331.8,107.7 
	332.8,107.7 332.8,117.6 331.8,117.6 331.8,110.7 "/>
<path class="st1" d="M177.3,87.5c0,3,0.2,3.6,1.1,4.2c0.9,0.6,2,0.8,3.8,0.8c2.5,0,5.3-1.5,5.3-6.6c0-4.6-2.6-6.7-7.6-6.7
	c-0.8,0-2,0.1-2.6,0.1V87.5z M177.3,76.8c2.9,0,4.6-0.3,6-1.1c1.1-0.6,2.5-2.1,2.5-4.9c0-3.7-3-5.8-8.5-5.8V76.8z M167.3,63.1
	c4.6-0.4,8.3-0.6,13.1-0.6c9.8,0,14,2.4,14,7c0,3.9-4.2,6.5-7.8,7.4v0.6c2.5,0.2,4.6,0.8,5.9,1.4c1.8,0.9,3.6,2.7,3.6,5.6
	c0,5.4-4.9,10.7-15.5,10.7c-5,0-9.2-0.4-11.8-0.9c0.5-2.7,0.7-8.9,0.7-17.1c0-4.7-0.1-7.5-0.3-9.3C169,66.8,168.9,63.7,167.3,63.1"
	/>
<path class="st1" d="M273.7,87.5c0,3,0.2,3.6,1.1,4.2c0.9,0.6,2,0.8,3.8,0.8c2.5,0,5.3-1.5,5.3-6.6c0-4.6-2.6-6.7-7.6-6.7
	c-0.8,0-2,0.1-2.6,0.1V87.5z M273.7,76.8c2.9,0,4.6-0.3,6-1.1c1.1-0.6,2.5-2.1,2.5-4.9c0-3.7-3-5.8-8.5-5.8V76.8z M263.7,63.1
	c4.6-0.4,8.3-0.6,13.1-0.6c9.8,0,14,2.4,14,7c0,3.9-4.2,6.5-7.8,7.4v0.6c2.5,0.2,4.6,0.8,5.9,1.4c1.8,0.9,3.6,2.7,3.6,5.6
	c0,5.4-4.9,10.7-15.5,10.7c-5,0-9.1-0.4-11.8-0.9c0.5-2.7,0.7-8.9,0.7-17.1c0-4.7-0.1-7.5-0.3-9.3C265.4,66.8,265.3,63.7,263.7,63.1
	"/>
<path class="st1" d="M112.9,63.1l10.3-0.3c0,0-0.1,19.1-0.1,27c0,0,9.3,1,15.1-0.9l-4.6,5.2c0,0-3,0.8-7.6,0.8h-11.4
	c0,0,0.6-2.9,0.6-15.2c0-6-0.3-10.9-0.6-12.7C114.1,65.2,113.8,63.7,112.9,63.1"/>
<path class="st1" d="M148.6,66.3c-0.2,5.9,0,17.8,0,23.6c0,0,9.3,1,15.1-0.9l-4.6,5.2c0,0-3,0.8-7.6,0.8H140c0,0,0.5-4.7,0.5-17
	c0-6.1-0.2-9.2-0.5-11c-0.3-1.8-0.6-3.4-1.5-3.9l10.2-0.3h12.7h1v5.3c0,0-2.2-2-6.4-2c-4.2,0-7.6,0.6-7.6,0.6"/>
<path class="st1" d="M147.8,76H161c0,0-1.7,3.7-4,3.9c-2.3,0.2-9.5,0-9.5,0L147.8,76z"/>
<path class="st1" d="M209.5,66.3c-0.2,5.9,0,17.9,0,23.6c0,0,9.3,1,15.1-0.9l-4.6,5.2c0,0-3,0.8-7.6,0.8h-11.4c0,0,0.5-4.7,0.5-17
	c0-6.1-0.2-9.2-0.5-11c-0.3-1.8-0.6-3.4-1.5-3.9l10.2-0.3h12.7h1v5.3c0,0-2.2-2-6.4-2c-4.2,0-7.6,0.6-7.6,0.6"/>
<path class="st1" d="M208.7,76h13.2c0,0-1.7,3.7-4,3.9c-2.3,0.2-9.5,0-9.5,0L208.7,76z"/>
<path class="st1" d="M328,94.6c0,0-1.8-0.8-3.7-3.9c-2-3.1-11.2-22.2-12.6-27.3l-5.5,0.2c0,0-4.7,16.5-15.1,30.9h6.3
	c0,0,6.6-15.3,9.8-23c0,0,8.6,21.5,9.7,23.1H328z"/>
<path class="st1" d="M258.1,95.5l0.8-32.4l-5.6,0.2c1.7,12,1.2,12.1,1,20.5L236.4,63l-8.9,0.3c0,0,4,1.6,0.8,31.8l4-0.1h1.2
	l-0.5-23.4c0,0,17.5,20.6,21.7,23.5C254.6,95.1,256.8,95.5,258.1,95.5"/>
<path class="st1" d="M357.2,75.6c0.1-4.8,0.7-13,0.7-13c-1,0.3-4.4,1-5,1.1l-0.2,0.5c0.2,1.7,0.6,7.7,0.7,12.7c0,0,0-2.8,0,0
	c0,2.8,1,14.4-7.7,14.4c-11.8,0-10.9-11.8-10.9-11.8V63.1H325c1.9,0,2.3,4.9,2.3,4.9v13.9c0,8.4,4.8,14.6,17.9,13.2
	c13.1-1.4,12-16.3,12-16.3V75.6z"/>
<path class="st1" d="M299.4,83.1h13.2c0,0-1.7,3.7-4,3.9c-2.3,0.2-9.5,0-9.5,0L299.4,83.1z"/>
<path class="st0" d="M64.2,118.2c-0.2-0.9-6.9-25.5-21-44.1c0,0,16.3,16.3,21.5,36.1V94.8C64.7,67.6,35.9,62,35.9,62
	c-0.4,39.8,7.2,37.4,17.6,44c4.9,3.1,7.7,8.1,9.3,12.1H64.2z"/>
<path class="st0" d="M96.8,62c0,0-28.8,5.6-28.8,32.8v15.4c5.1-19.8,21.5-36.1,21.5-36.1c-14.1,18.5-20.8,43.2-21,44.1h1.3
	c1.6-4,4.4-9,9.3-12.1C89.6,99.4,97.2,101.8,96.8,62"/>
<path class="st0" d="M86.1,59.6c1.7-1.1,3.5-2,5.4-2.8L66.9,41L41.5,57.6c2.8,0.8,4.5,2.1,7.1,2.8c6,1.6,10.6-1.8,10.6-1.8l7.3-5.2
	l8.9,5.6C75.4,59,80.8,62,86.1,59.6"/>
</svg>
