<svg xmlns="http://www.w3.org/2000/svg" viewBox="0 0 322.02 78.5"><defs><style>.a{fill:#ff7d00;}.b{fill:#2d2d2e;}</style></defs><title>logo</title><polygon class="a" points="82.11 76.6 82.11 72 79.81 72 79.81 76.6 78.72 76.6 78.72 66.7 79.81 66.7 79.81 71.1 82.11 71.1 82.11 66.7 83.22 66.7 83.22 76.6 82.11 76.6"/><path class="a" d="M87.82,68.8l-.4,2.3-.5,2.3h1.8l-.5-2.3-.4-2.3Zm1.6,7.8-.5-2.2h-2.2l-.4,2.2h-1.1l2.1-9.8h1l2.1,9.8Z"/><path class="a" d="M96.22,75.6V67.7h-2.1l-.2,5a9,9,0,0,1-.2,1.8,2.82,2.82,0,0,1-.4,1.1Zm-3.5,2.9h-1V75.7l.4-.1.3-.3a.76.76,0,0,0,.2-.5,6.37,6.37,0,0,0,.2-.9c0-.3.1-.8.1-1.2l.2-5.9h4.2v8.9h.5v2.8h-1V76.6h-4.1v1.9Z"/><polygon class="a" points="99.81 76.6 99.81 66.7 104.02 66.7 104.02 67.8 100.92 67.8 100.92 71.1 103.61 71.1 103.61 72.1 100.92 72.1 100.92 75.5 104.02 75.5 104.02 76.6 99.81 76.6"/><path class="a" d="M109.52,76.6V72.1h-1c-.2,0-.3.1-.5.2a1,1,0,0,0-.4.5,6.89,6.89,0,0,0-.3.8l-.6,3h-1.1l.7-3.2a3.34,3.34,0,0,1,.5-1.2,1.6,1.6,0,0,1,.9-.7,1.34,1.34,0,0,1-.7-.6,3.34,3.34,0,0,1-.5-1.2l-.7-2.9h1l.7,2.8a6.89,6.89,0,0,0,.3.8c.1.2.3.3.4.4s.3.2.5.2h.8V66.7h1.1V71h.8c.2,0,.3-.1.5-.2s.3-.2.4-.4a3.39,3.39,0,0,0,.3-.8l.7-2.8h1l-.7,2.9a3.34,3.34,0,0,1-.5,1.2,1.87,1.87,0,0,1-.7.6c.4.1.6.4.9.7a7.26,7.26,0,0,1,.5,1.2l.7,3.2h-1.1l-.6-3a6.89,6.89,0,0,0-.3-.8,1,1,0,0,0-.4-.5c-.2-.1-.3-.2-.5-.2h-1v4.5Z"/><polygon class="a" points="120.02 76.6 120.02 72 117.72 72 117.72 76.6 116.61 76.6 116.61 66.7 117.72 66.7 117.72 71.1 120.02 71.1 120.02 66.7 121.11 66.7 121.11 76.6 120.02 76.6"/><path class="a" d="M128.92,66.7H130v9.8h-1.1Zm-4.1,8.8h.8a2,2,0,0,0,.8-.1,1.76,1.76,0,0,0,.5-.4,1.42,1.42,0,0,0,.2-.6V73a1.42,1.42,0,0,0-.2-.6,1,1,0,0,0-.5-.4,1.88,1.88,0,0,0-.8-.2h-.8Zm-1.1,1.1V66.8h1.1v4h.8a4.44,4.44,0,0,1,1.3.2,1.56,1.56,0,0,1,.8.6,3.55,3.55,0,0,1,.4.9,3.75,3.75,0,0,1,.1,1.1,4.12,4.12,0,0,1-.1,1.2,3,3,0,0,1-.4,1,1.24,1.24,0,0,1-.8.6,3.73,3.73,0,0,1-1.2.2h-2Z"/><polygon class="a" points="132.72 76.6 132.72 66.7 136.91 66.7 136.91 67.8 133.81 67.8 133.81 71.1 136.51 71.1 136.51 72.1 133.81 72.1 133.81 75.5 136.91 75.5 136.91 76.6 132.72 76.6"/><path class="a" d="M143.82,71.6h.8a1.88,1.88,0,0,0,.8-.2,1,1,0,0,0,.5-.4,1.42,1.42,0,0,0,.2-.6v-.7a2.2,2.2,0,0,0-.1-.8,1.42,1.42,0,0,0-.2-.6,1,1,0,0,0-.5-.4,2,2,0,0,0-.8-.1h-.8v3.8Zm.9-4.9a3.73,3.73,0,0,1,1.2.2,1.56,1.56,0,0,1,.8.6,2.47,2.47,0,0,1,.4.9,7.25,7.25,0,0,1,0,2.4,1.88,1.88,0,0,1-.4.9,1.56,1.56,0,0,1-.8.6,2.55,2.55,0,0,1-1.3.2h-.8v4h-1.1V66.7h2Z"/><polygon class="a" points="149.41 76.6 149.41 66.7 153.62 66.7 153.62 67.8 150.51 67.8 150.51 71.1 153.22 71.1 153.22 72.1 150.51 72.1 150.51 75.5 153.62 75.5 153.62 76.6 149.41 76.6"/><polygon class="a" points="162.81 66.7 162.81 76.6 155.62 76.6 155.62 66.7 156.72 66.7 156.72 75.5 158.72 75.5 158.72 66.7 159.81 66.7 159.81 75.5 161.72 75.5 161.72 66.7 162.81 66.7"/><polygon class="a" points="165.41 76.6 165.41 66.7 169.62 66.7 169.62 67.8 166.51 67.8 166.51 71.1 169.22 71.1 169.22 72.1 166.51 72.1 166.51 75.5 169.62 75.5 169.62 76.6 165.41 76.6"/><polygon class="a" points="175.01 76.6 175.01 72 172.72 72 172.72 76.6 171.62 76.6 171.62 66.7 172.72 66.7 172.72 71.1 175.01 71.1 175.01 66.7 176.12 66.7 176.12 76.6 175.01 76.6"/><polygon class="a" points="182.22 69.7 179.72 76.6 178.72 76.6 178.72 66.7 179.81 66.7 179.81 73.7 179.81 73.7 182.31 66.7 183.31 66.7 183.31 76.6 182.31 76.6 182.31 69.7 182.22 69.7"/><path class="a" d="M187,69.6c0,1,.5,1.6,1.4,1.6h1V67.8h-.9a1.48,1.48,0,0,0-.7.1.78.78,0,0,0-.4.4,1.42,1.42,0,0,0-.2.6,1,1,0,0,0-.2.7m-1.4,7,.6-3.1c.1-.4.2-.7.3-1a1.34,1.34,0,0,1,.6-.7l-.6-.3a1,1,0,0,1-.4-.5,1.42,1.42,0,0,1-.2-.6c0-.2-.1-.5-.1-.7a3.59,3.59,0,0,1,.6-2.2,2.14,2.14,0,0,1,1.8-.7h2.2v9.8h-1.1V72.2h-1a.76.76,0,0,0-.4.2,2.18,2.18,0,0,0-.4.5,6.89,6.89,0,0,0-.3.8l-.5,2.9h-1.1Z"/><path class="a" d="M200.62,75.6V67.7h-2.1l-.2,5a9,9,0,0,1-.2,1.8,2.82,2.82,0,0,1-.4,1.1Zm-3.5,2.9h-1V75.7l.4-.1.3-.3a.76.76,0,0,0,.2-.5,6.37,6.37,0,0,0,.2-.9c0-.3.1-.8.1-1.2l.2-5.9h4.2v8.9h.5v2.8h-1V76.6h-4.1Z"/><path class="a" d="M205.82,71.6a13.47,13.47,0,0,1-.1,2.2q-.15.9-.3,1.5a1.46,1.46,0,0,1-.6.9,3.49,3.49,0,0,1-.9.6l-.5-.8c.2-.2.4-.3.6-.5a2.09,2.09,0,0,0,.4-.6,6.21,6.21,0,0,0,.3-1,6.62,6.62,0,0,0,.1-1.5V66.6h4.1v9.8h-1.1V67.6h-2Z"/><path class="a" d="M212.62,69.6c0,1,.5,1.6,1.4,1.6h1V67.8h-.9a1.48,1.48,0,0,0-.7.1.78.78,0,0,0-.4.4,1.42,1.42,0,0,0-.2.6,1,1,0,0,0-.2.7m-1.4,7,.6-3.1c.1-.4.2-.7.3-1a1.34,1.34,0,0,1,.6-.7l-.6-.3a1,1,0,0,1-.4-.5,1.42,1.42,0,0,1-.2-.6c0-.2-.1-.5-.1-.7a3.59,3.59,0,0,1,.6-2.2,2.14,2.14,0,0,1,1.8-.7H216v9.8h-1.1V72.2h-1a.76.76,0,0,0-.4.2,2.18,2.18,0,0,0-.4.5,6.89,6.89,0,0,0-.3.8l-.5,2.9h-1.1Z"/><polygon class="a" points="225.72 76.6 225.72 72 223.51 72 223.51 76.6 222.31 76.6 222.31 66.7 223.51 66.7 223.51 71.1 225.72 71.1 225.72 66.7 226.91 66.7 226.91 76.6 225.72 76.6"/><path class="a" d="M232.82,69.2v-.5c0-.2-.1-.3-.2-.5s-.2-.3-.3-.4a1.27,1.27,0,0,0-.6-.1.85.85,0,0,0-.6.2.55.55,0,0,0-.3.5,1.27,1.27,0,0,0-.1.6v5.8c0,.2.1.3.2.5s.2.3.3.3.3.1.6.1a1.27,1.27,0,0,0,.6-.1.78.78,0,0,0,.4-.4c.1-.1.1-.3.2-.5s.1-.4.1-.6V69.2Zm1.1,4.7a3.44,3.44,0,0,1-.5,2c-.3.5-.9.7-1.8.7a1.83,1.83,0,0,1-1.7-.7,3,3,0,0,1-.5-1.8V69.2a3.4,3.4,0,0,1,.1-1l.3-.9a1.34,1.34,0,0,1,.7-.6,2,2,0,0,1,1.1-.2,3.73,3.73,0,0,1,1.2.2,1.34,1.34,0,0,1,.7.6,1.22,1.22,0,0,1,.3.9,3.75,3.75,0,0,1,.1,1.1v4.6Z"/><path class="a" d="M239.82,73.6a1.92,1.92,0,0,0-.3-1.2c-.2-.3-.6-.4-1.2-.4h-.8v3.7h.9a1.17,1.17,0,0,0,.7-.2c.2-.1.3-.3.4-.4a1.42,1.42,0,0,0,.2-.6,3.45,3.45,0,0,0,.1-.9m-.1-4.3a2.13,2.13,0,0,0-.3-1.2,1.25,1.25,0,0,0-1.1-.4h-.8v3.1h.7a1.38,1.38,0,0,0,1.5-1.5m0,2.1a1.42,1.42,0,0,1,.9.8,3.42,3.42,0,0,1,.2,1.5,3.22,3.22,0,0,1-.6,2.2,2.44,2.44,0,0,1-2,.7h-1.9V66.8h2.1a2.14,2.14,0,0,1,1.8.7,3.56,3.56,0,0,1,.5,1.9,3.73,3.73,0,0,1-.2,1.2c-.1.3-.4.5-.8.8Z"/><path class="a" d="M246.62,69.2v-.5c0-.2-.1-.3-.1-.5s-.2-.3-.3-.4a1.27,1.27,0,0,0-.6-.1,1.45,1.45,0,0,0-.7.2.55.55,0,0,0-.3.5,1.27,1.27,0,0,0-.1.6v5.8c0,.2.1.3.2.5s.2.3.3.3.3.1.6.1a1.27,1.27,0,0,0,.6-.1.78.78,0,0,0,.4-.4c.1-.1.1-.3.2-.5V69.2Zm1.1,4.7a3.44,3.44,0,0,1-.5,2c-.3.5-.9.7-1.8.7a1.83,1.83,0,0,1-1.7-.7,3,3,0,0,1-.5-1.8V69.2a3.4,3.4,0,0,1,.1-1l.3-.9a1.34,1.34,0,0,1,.7-.6,2,2,0,0,1,1.1-.2,3.73,3.73,0,0,1,1.2.2,1.34,1.34,0,0,1,.7.6,1.22,1.22,0,0,1,.3.9,3.75,3.75,0,0,1,.1,1.1v4.6Z"/><path class="a" d="M251.52,64.7a.37.37,0,0,0,.1.3c0,.1.1.2.2.3s.2.2.3.2.2.1.4.1.3,0,.4-.1.2-.1.3-.2.2-.2.2-.3.1-.2.1-.3h.9c0,.2-.1.4-.1.6l-.3.6a1.27,1.27,0,0,1-.6.4,1.88,1.88,0,0,1-.8.2,2.92,2.92,0,0,1-.9-.2c-.2-.1-.4-.3-.6-.4s-.3-.4-.3-.6a1.27,1.27,0,0,1-.1-.6Zm2.2,5-2.5,6.9h-1V66.8h1.1v7h.1l2.5-7H255v9.8h-1.1l-.2-6.9Z"/><path class="a" d="M264.62,76.6V72.1h-1c-.2,0-.3.1-.5.2a1,1,0,0,0-.4.5,6.88,6.88,0,0,0-.3.8l-.6,3h-1.1l.7-3.2a8.34,8.34,0,0,1,.4-1.2,1.6,1.6,0,0,1,.9-.7,1.34,1.34,0,0,1-.7-.6,3.34,3.34,0,0,1-.5-1.2l-.6-2.9h1l.7,2.8a6.9,6.9,0,0,0,.3.8c.1.2.3.3.4.4a.76.76,0,0,0,.5.2h.8V66.7h1.1V71h.8c.2,0,.3-.1.5-.2s.3-.2.4-.4a3.38,3.38,0,0,0,.3-.8l.7-2.8h1l-.6,2.9a3.34,3.34,0,0,1-.5,1.2,1.87,1.87,0,0,1-.7.6,1.14,1.14,0,0,1,.8.7,7.26,7.26,0,0,1,.5,1.2l.7,3.2h-1.1l-.6-3a6.9,6.9,0,0,0-.3-.8,1,1,0,0,0-.4-.5c-.2-.1-.3-.2-.5-.2h-1v4.5Z"/><polygon class="a" points="275.12 69.7 272.71 76.6 271.62 76.6 271.62 66.7 272.71 66.7 272.71 73.7 272.71 73.7 275.21 66.7 276.31 66.7 276.31 76.6 275.21 76.6 275.21 69.7 275.12 69.7"/><path class="a" d="M280.42,66.6a2.48,2.48,0,0,1,.9.1,1.61,1.61,0,0,1,.7.4,5.58,5.58,0,0,1,.5.8,3.73,3.73,0,0,1,.2,1.2v.6c0,.2-.1.4-.1.7l-.3.6c-.1.2-.3.3-.4.4h0a2.18,2.18,0,0,1,.5.4l.3.6a1.27,1.27,0,0,1,.1.6v.6a4.47,4.47,0,0,1-.5,2.2,1.94,1.94,0,0,1-1.7.7,2.77,2.77,0,0,1-.9-.1,1.61,1.61,0,0,1-.7-.4,1.79,1.79,0,0,1-.5-.7,3.08,3.08,0,0,1-.1-1l1.1-.2a1.61,1.61,0,0,0,.3,1.1,1.14,1.14,0,0,0,.8.3c.2,0,.3,0,.4-.1s.3-.2.4-.3a.85.85,0,0,0,.2-.6,2.48,2.48,0,0,0,.1-.9v-.7a1.42,1.42,0,0,0-.2-.6,1.38,1.38,0,0,0-.3-.4.75.75,0,0,0-.5-.1h-.6v-1h.7a.75.75,0,0,0,.5-.1,1.38,1.38,0,0,0,.3-.4,4.17,4.17,0,0,0,.2-.6c0-.2.1-.4.1-.7a2,2,0,0,0-.1-.8c-.1-.2-.1-.4-.3-.5a1.38,1.38,0,0,0-.4-.3,4.33,4.33,0,0,0-.5-.1c-.4,0-.7.1-.8.4a1.69,1.69,0,0,0-.3,1l-1.1-.2a2,2,0,0,1,.6-1.6,4.2,4.2,0,0,1,1.4-.3"/><polygon class="a" points="288.62 76.6 288.62 72 286.31 72 286.31 76.6 285.21 76.6 285.21 66.7 286.31 66.7 286.31 71.1 288.62 71.1 288.62 66.7 289.71 66.7 289.71 76.6 288.62 76.6"/><polygon class="a" points="295.81 69.7 293.31 76.6 292.31 76.6 292.31 66.7 293.42 66.7 293.42 73.7 293.42 73.7 295.92 66.7 296.92 66.7 296.92 76.6 295.92 76.6 295.92 69.7 295.81 69.7"/><path class="b" d="M141.42,46.5c0,3,.2,3.6,1.1,4.2a6.52,6.52,0,0,0,3.8.8c2.5,0,5.3-1.5,5.3-6.6,0-4.6-2.6-6.7-7.6-6.7-.8,0-2,.1-2.6.1Zm0-10.7c2.9,0,4.6-.3,6-1.1a5.29,5.29,0,0,0,2.5-4.9c0-3.7-3-5.8-8.5-5.8Zm-10-13.7c4.6-.4,8.3-.6,13.1-.6,9.8,0,14,2.4,14,7,0,3.9-4.2,6.5-7.8,7.4v.6a18.2,18.2,0,0,1,5.9,1.4,6.15,6.15,0,0,1,3.6,5.6c0,5.4-4.9,10.7-15.5,10.7a67.15,67.15,0,0,1-11.8-.9c.5-2.7.7-8.9.7-17.1,0-4.7-.1-7.5-.3-9.3-.2-1.1-.3-4.2-1.9-4.8"/><path class="b" d="M237.82,46.5c0,3,.2,3.6,1.1,4.2a6.52,6.52,0,0,0,3.8.8c2.5,0,5.3-1.5,5.3-6.6,0-4.6-2.6-6.7-7.6-6.7-.8,0-2,.1-2.6.1v8.2Zm0-10.7c2.9,0,4.6-.3,6-1.1a5.29,5.29,0,0,0,2.5-4.9c0-3.7-3-5.8-8.5-5.8Zm-10-13.7c4.6-.4,8.3-.6,13.1-.6,9.8,0,14,2.4,14,7,0,3.9-4.2,6.5-7.8,7.4v.6a18.2,18.2,0,0,1,5.9,1.4,6.15,6.15,0,0,1,3.6,5.6c0,5.4-4.9,10.7-15.5,10.7a68,68,0,0,1-11.8-.9c.5-2.7.7-8.9.7-17.1,0-4.7-.1-7.5-.3-9.3-.2-1.1-.3-4.2-1.9-4.8"/><path class="b" d="M77,22.1l10.3-.3s-.1,19.1-.1,27c0,0,9.3,1,15.1-.9l-4.6,5.2a32.41,32.41,0,0,1-7.6.8H78.72s.6-2.9.6-15.2a101.75,101.75,0,0,0-.6-12.7c-.5-1.8-.8-3.3-1.7-3.9"/><path class="b" d="M112.72,25.3c-.2,5.9,0,17.8,0,23.6,0,0,9.3,1,15.1-.9l-4.6,5.2a32.41,32.41,0,0,1-7.6.8h-11.5s.5-4.7.5-17a74.82,74.82,0,0,0-.5-11c-.3-1.8-.6-3.4-1.5-3.9l10.2-.3h13.7v5.3a9.91,9.91,0,0,0-6.4-2,48.75,48.75,0,0,0-7.6.6"/><path class="b" d="M111.92,35h13.2s-1.7,3.7-4,3.9-9.5,0-9.5,0Z"/><path class="b" d="M173.62,25.3c-.2,5.9,0,17.9,0,23.6,0,0,9.3,1,15.1-.9l-4.6,5.2a32.41,32.41,0,0,1-7.6.8h-11.4s.5-4.7.5-17a74.82,74.82,0,0,0-.5-11c-.3-1.8-.6-3.4-1.5-3.9l10.2-.3h13.7v5.3a9.91,9.91,0,0,0-6.4-2,48.75,48.75,0,0,0-7.6.6"/><path class="b" d="M172.82,35H186s-1.7,3.7-4,3.9-9.5,0-9.5,0Z"/><path class="b" d="M292.12,53.6s-1.8-.8-3.7-3.9-11.2-22.2-12.6-27.3l-5.5.2a112.23,112.23,0,0,1-15.1,30.9h6.3s6.6-15.3,9.8-23c0,0,8.6,21.5,9.7,23.1Z"/><path class="b" d="M222.22,54.5l.8-32.4-5.6.2c1.7,12,1.2,12.1,1,20.5L200.52,22l-8.9.3s4,1.6.8,31.8l4-.1h1.2l-.5-23.4s17.5,20.6,21.7,23.5a21.7,21.7,0,0,0,3.4.4"/><path class="b" d="M321.32,34.6c.1-4.8.7-13,.7-13-1,.3-4.4,1-5,1.1l-.2.5c.2,1.7.6,7.7.7,12.7h0c0,2.8,1,14.4-7.7,14.4-11.8,0-10.9-11.8-10.9-11.8V22.1h-9.8c1.9,0,2.3,4.9,2.3,4.9V40.9c0,8.4,4.8,14.6,17.9,13.2s12-16.3,12-16.3V34.6Z"/><path class="b" d="M263.52,42.1h13.2s-1.7,3.7-4,3.9-9.5,0-9.5,0Z"/><path class="a" d="M28.32,77.2c-.2-.9-6.9-25.5-21-44.1,0,0,16.3,16.3,21.5,36.1V53.8C28.82,26.6,0,21,0,21c-.4,39.8,7.2,37.4,17.6,44,4.9,3.1,7.7,8.1,9.3,12.1h1.4Z"/><path class="a" d="M60.92,21s-28.8,5.6-28.8,32.8V69.2c5.1-19.8,21.5-36.1,21.5-36.1-14.1,18.5-20.8,43.2-21,44.1h1.3c1.6-4,4.4-9,9.3-12.1,10.5-6.7,18.1-4.3,17.7-44.1"/><path class="a" d="M50.22,18.6a34.48,34.48,0,0,1,5.4-2.8L31,0,5.62,16.6c2.8.8,4.5,2.1,7.1,2.8a13.26,13.26,0,0,0,10.6-1.8l7.3-5.2,8.9,5.6s5.4,3,10.7.6"/></svg>