<svg xmlns="http://www.w3.org/2000/svg" viewBox="0 0 50.98 34.92"><defs><style>.a{fill:#fff;stroke:#000333;stroke-miterlimit:10;stroke-width:2px;}</style></defs><title>calc-icons_handle-hoppe</title><path class="a" d="M41.94,35.53l1.95,1.95a3.78,3.78,0,0,0,5.84,0l9.91-9.91a4.13,4.13,0,0,0,0-5.83l-2-2" transform="translate(-10.86 -17.12)"/><path class="a" d="M41.46,35.05h0a4.13,4.13,0,0,1,0-5.83l7.36-7.36,2.55-2.55a4.13,4.13,0,0,1,5.83,0h0a4.13,4.13,0,0,1,0,5.83l-9.91,9.91A4.13,4.13,0,0,1,41.46,35.05Z" transform="translate(-10.86 -17.12)"/><path class="a" d="M12.29,46.19,35.77,22.71a10.23,10.23,0,0,1,14.47,0l1.12,1.12h0c1.14,1.14-3.43,6.08-5,4.51l-.73-.73a4.19,4.19,0,0,0-5.93,0l-23,23a1.48,1.48,0,0,1-2.09,0l-2.33-2.33A1.48,1.48,0,0,1,12.29,46.19Z" transform="translate(-10.86 -17.12)"/></svg>