<?xml version="1.0" encoding="utf-8"?>
<!-- Generator: Adobe Illustrator 21.1.0, SVG Export Plug-In . SVG Version: 6.00 Build 0)  -->
<svg version="1.1" id="Layer_1" xmlns="http://www.w3.org/2000/svg" xmlns:xlink="http://www.w3.org/1999/xlink" x="0px" y="0px"
	 viewBox="0 0 70 70" style="enable-background:new 0 0 70 70;" xml:space="preserve">
<style type="text/css">
	.st0{fill:none;stroke:#000333;stroke-width:2;stroke-miterlimit:10;}
	.st1{fill:none;stroke:#1056C6;stroke-width:2;stroke-miterlimit:10;}
	.st2{fill:none;stroke:#FF8300;stroke-width:2;stroke-miterlimit:10;}
	.st3{fill:#000333;}
	.st4{fill:#FF8300;}
</style>
<g>
	<g>
		<path class="st3" d="M22.1,53.5l-1.5,4.7h-2l5.1-14.9h2.3L31,58.2H29l-1.6-4.7H22.1z M27,52l-1.5-4.3c-0.3-1-0.6-1.9-0.8-2.7h0
			c-0.2,0.9-0.5,1.8-0.8,2.7L22.5,52H27z"/>
		<path class="st3" d="M33.1,50.8c0-1.3,0-2.3-0.1-3.3h1.7l0.1,2.1h0.1c0.5-1.4,1.7-2.3,3-2.3c0.2,0,0.4,0,0.6,0.1v1.8
			c-0.2,0-0.4-0.1-0.7-0.1c-1.4,0-2.3,1-2.6,2.5c0,0.3-0.1,0.6-0.1,0.9v5.7h-1.9V50.8z"/>
	</g>
	<circle class="st2" cx="34.5" cy="34.2" r="4.5"/>
	<circle class="st2" cx="46.5" cy="41.2" r="3.5"/>
	<circle class="st2" cx="28.5" cy="19.2" r="5.5"/>
	<circle class="st2" cx="47.5" cy="23.2" r="8.5"/>
</g>
</svg>
