<?xml version="1.0" encoding="utf-8"?>
<!-- Generator: Adobe Illustrator 21.1.0, SVG Export Plug-In . SVG Version: 6.00 Build 0)  -->
<svg version="1.1" id="Layer_1" xmlns="http://www.w3.org/2000/svg" xmlns:xlink="http://www.w3.org/1999/xlink" x="0px" y="0px"
	 viewBox="0 0 70 70" style="enable-background:new 0 0 70 70;" xml:space="preserve">
<style type="text/css">
	.st0{fill:none;stroke:#000333;stroke-width:2;stroke-miterlimit:10;}
	.st1{fill:none;stroke:#1056C6;stroke-width:2;stroke-miterlimit:10;}
	.st2{fill:none;stroke:#FF8300;stroke-width:2;stroke-miterlimit:10;}
	.st3{fill:#000333;}
	.st4{fill:#FF8300;}
</style>
<g>
	<line class="st0" x1="64" y1="21" x2="64" y2="51"/>
	<polyline class="st0" points="47,36 36,25 47,13 58,24 58,48 53,54 57,59 35,59 35,36 40,42 58,24 	"/>
	<g>
		<g>
			<g>
				<g>
					<path class="st1" d="M31,49.3c-2.7,2.4-4.9,4.2-10.8,0.9C12.4,45.8,8.8,49,5.9,51.5"/>
				</g>
			</g>
		</g>
		<g>
			<g>
				<g>
					<path class="st1" d="M31,44.3c-2.7,2.4-4.9,4.2-10.8,0.9C12.4,40.8,8.8,44,5.9,46.5"/>
				</g>
			</g>
		</g>
		<g>
			<g>
				<g>
					<path class="st1" d="M31,39.3c-2.7,2.4-4.9,4.2-10.8,0.9C12.4,35.8,8.8,39,5.9,41.5"/>
				</g>
			</g>
		</g>
		<g>
			<g>
				<g>
					<path class="st1" d="M31,34.3c-2.7,2.4-4.9,4.2-10.8,0.9C12.4,30.8,8.8,34,5.9,36.5"/>
				</g>
			</g>
		</g>
		<g>
			<g>
				<g>
					<path class="st1" d="M31,29.3c-2.7,2.4-4.9,4.2-10.8,0.9C12.4,25.8,8.8,29,5.9,31.5"/>
				</g>
			</g>
		</g>
	</g>
</g>
</svg>
