<?xml version="1.0" encoding="utf-8"?>
<!-- Generator: Adobe Illustrator 21.1.0, SVG Export Plug-In . SVG Version: 6.00 Build 0)  -->
<svg version="1.1" id="Layer_1" xmlns="http://www.w3.org/2000/svg" xmlns:xlink="http://www.w3.org/1999/xlink" x="0px" y="0px"
	 viewBox="0 0 70 70" style="enable-background:new 0 0 70 70;" xml:space="preserve">
<style type="text/css">
	.st0{fill:none;stroke:#000333;stroke-width:2;stroke-miterlimit:10;}
	.st1{fill:none;stroke:#1056C6;stroke-width:2;stroke-miterlimit:10;}
	.st2{fill:none;stroke:#FF8300;stroke-width:2;stroke-miterlimit:10;}
	.st3{fill:#000333;}
	.st4{fill:#FF8300;}
</style>
<g>
	<line class="st0" x1="60" y1="21" x2="60" y2="51"/>
	<polyline class="st0" points="43,36 32,25 43,13 54,24 54,48 49,54 53,59 31,59 31,36 36,42 54,24 	"/>
	<path class="st2" d="M24.5,28c-4.7,0-8.5,3.8-8.5,8.5s3.8,8.5,8.5,8.5"/>
	<g>
		<line class="st2" x1="2" y1="36" x2="11" y2="36"/>
	</g>
	<g>
		<line class="st2" x1="8.2" y1="20.6" x2="15.3" y2="27.7"/>
	</g>
	<g>
		<line class="st2" x1="8.2" y1="52.3" x2="15.2" y2="45.2"/>
	</g>
	<g>
		<line class="st2" x1="24" y1="59" x2="24" y2="49"/>
	</g>
	<g>
		<line class="st2" x1="24" y1="13" x2="24" y2="23"/>
	</g>
</g>
</svg>
