<?xml version="1.0" encoding="utf-8"?>
<!-- Generator: Adobe Illustrator 21.1.0, SVG Export Plug-In . SVG Version: 6.00 Build 0)  -->
<svg version="1.1" id="Layer_1" xmlns="http://www.w3.org/2000/svg" xmlns:xlink="http://www.w3.org/1999/xlink" x="0px" y="0px"
	 viewBox="0 0 70 70" style="enable-background:new 0 0 70 70;" xml:space="preserve">
<style type="text/css">
	.st0{fill:none;stroke:#000333;stroke-width:2;stroke-miterlimit:10;}
	.st1{fill:none;stroke:#1056C6;stroke-width:2;stroke-miterlimit:10;}
	.st2{fill:none;stroke:#FF8300;stroke-width:2;stroke-miterlimit:10;}
	.st3{fill:#000333;}
	.st4{fill:#FF8300;}
</style>
<g>
	<line class="st0" x1="60" y1="23" x2="60" y2="53"/>
	<polyline class="st0" points="45,36 34,25 45,13 56,24 56,48 51,54 55,59 33,59 33,36 38,42 56,24 	"/>
	<path class="st1" d="M17.2,28.2c0,0-2,3.2-3.6,6.1c-2.1,3.9-3.2,6.6-3.2,8.1c0,3.7,3,6.7,6.7,6.7c3.7,0,6.7-3,6.7-6.7
		c0-1.5-1.1-4.2-3.2-8.1C19.2,31.4,17.2,28.2,17.2,28.2L17.2,28.2z M17.2,28.2"/>
</g>
</svg>
