<?xml version="1.0" encoding="utf-8"?>
<!-- Generator: Adobe Illustrator 21.1.0, SVG Export Plug-In . SVG Version: 6.00 Build 0)  -->
<svg version="1.1" id="Layer_1" xmlns="http://www.w3.org/2000/svg" xmlns:xlink="http://www.w3.org/1999/xlink" x="0px" y="0px"
	 viewBox="0 0 70 70" style="enable-background:new 0 0 70 70;" xml:space="preserve">
<style type="text/css">
	.st0{fill:none;stroke:#000333;stroke-width:2;stroke-miterlimit:10;}
	.st1{fill:none;stroke:#1056C6;stroke-width:2;stroke-miterlimit:10;}
	.st2{fill:none;stroke:#FF8300;stroke-width:2;stroke-miterlimit:10;}
	.st3{fill:#000333;}
	.st4{fill:#FF8300;}
</style>
<g>
	<rect x="18.1" y="35.1" class="st4" width="1.7" height="1.7"/>
	<rect x="16.4" y="32.6" class="st4" width="1.7" height="1.7"/>
	<rect x="24" y="36.8" class="st4" width="1.7" height="1.7"/>
	<rect x="27.3" y="35.1" class="st4" width="1.7" height="1.7"/>
	<path d="M22.9,34l4.5-4.5c0.8,0.6,1.7,0.8,2.6,0.8c1.1,0,2.2-0.4,3-1.2l7.4-6.8c0.3,0.1,0.5,0.1,0.8,0.1l4.7,5.3c0,0.2,0,0.4,0,0.6
		c0,1.1,0.3,2.1,0.8,3V41h-2.5V46h-1.7v15.2h1.7V47.7h15.2v13.5H61V46h-1.7V41h-2.5v-9.6c0.5-0.9,0.8-1.9,0.8-3c0-2.1-1.1-3.9-2.7-5
		l-7.6-8.5c-0.7-2.4-3-4.2-5.6-4.2c-2.1,0-3.9,1.1-4.9,2.7l-9.8,9.3c-0.9,0.8-1.4,2-1.4,3.2c0,0.9,0.2,1.7,0.7,2.4l-4.5,4.5L22.9,34
		z M57.6,42.7V46H45.8v-3.4H57.6z M48.4,41v-7.8c1,0.7,2.1,1.1,3.4,1.1c1.3,0,2.4-0.4,3.4-1.1V41H48.4z M55.9,28.4
		c0,2.3-1.9,4.2-4.2,4.2s-4.2-1.9-4.2-4.2s1.9-4.2,4.2-4.2S55.9,26,55.9,28.4z M47.4,17.6l4.4,4.9c0,0,0,0-0.1,0
		c-2.3,0-4.4,1.4-5.3,3.4l-3.2-3.6C45.4,21.6,47,19.8,47.4,17.6z M41.6,12.4c2.3,0,4.2,1.9,4.2,4.2c0,2.3-1.9,4.2-4.2,4.2h0
		c-2.3,0-4.2-1.9-4.2-4.2C37.4,14.2,39.3,12.4,41.6,12.4z M28.1,23.9l7.7-7.3c0,2.1,1.2,4,2.9,5l-6.8,6.3c-1.1,1-2.8,1-3.8-0.1
		c-0.5-0.5-0.8-1.2-0.8-2C27.2,25.1,27.5,24.4,28.1,23.9z"/>
	<path class="st2" d="M14.3,39.3V45h10.8v-2.4c0-1.8-1.5-3.3-3.3-3.3H14.3z"/>
	<polyline class="st0" points="13.1,61.2 13.1,47 26.4,47 26.4,61 	"/>
	<line class="st0" x1="13.1" y1="53.6" x2="21.3" y2="53.6"/>
	<line class="st0" x1="26.4" y1="53.6" x2="23.9" y2="53.6"/>
	<polyline class="st0" points="43.6,61 43.6,47 60.1,47 60.1,61.2 	"/>
	<circle class="st1" cx="52.2" cy="54.6" r="2.8"/>
	<line class="st0" x1="10" y1="60.8" x2="64" y2="60.8"/>
</g>
</svg>
